<?xml version="1.0" encoding="UTF-8" standalone="no"?>
<!DOCTYPE svg PUBLIC "-//W3C//DTD SVG 1.1//EN" "http://www.w3.org/Graphics/SVG/1.1/DTD/svg11.dtd">
<svg version="1.1" xmlns="http://www.w3.org/2000/svg" xmlns:xlink="http://www.w3.org/1999/xlink" preserveAspectRatio="xMidYMid meet" viewBox="0 0 640 640" width="640" height="640"><defs><path d="M640 320C640 496.61 496.61 640 320 640C143.39 640 0 496.61 0 320C0 143.39 143.39 0 320 0C496.61 0 640 143.39 640 320Z" id="b2rPvnYI4T"></path><path d="M588.77 361.44L174.54 523.27L139.5 433.58L152.77 428.4L152.22 294.37L247.35 391.45L263.04 293.46L339.12 355.6L553.73 271.75L588.77 361.44Z" id="i2k3o2bgnv"></path><linearGradient id="gradientbnzkWxg6f" gradientUnits="userSpaceOnUse" x1="242.88" y1="337.13" x2="364.07" y2="647.32"><stop style="stop-color: #29751f;stop-opacity: 1" offset="0%"></stop><stop style="stop-color: #1e3919;stop-opacity: 1" offset="17.90409312553275%"></stop><stop style="stop-color: #192916;stop-opacity: 1" offset="100%"></stop><stop style="stop-color: #253e1f;stop-opacity: 1" offset="100%"></stop></linearGradient><path d="M71.87 260.49L482 98.16L511.49 172.16L551.7 275.07L140.36 435.78L71.87 260.49Z" id="dsJuPPDim"></path><linearGradient id="gradientd22f2BPf4" gradientUnits="userSpaceOnUse" x1="186.27" y1="208.91" x2="551.7" y2="275.07"><stop style="stop-color: #d4c91f;stop-opacity: 1" offset="0%"></stop><stop style="stop-color: #305be9;stop-opacity: 1" offset="100%"></stop></linearGradient><path d="M72.26 261.47L479.91 93.89L593.41 359.62L174.54 523.27L72.26 261.47Z" id="b1lDuJ00XP"></path><path d="M568.36 418.97L129.28 489.61L113.99 394.55L128.05 392.28L155.84 261.16L228.31 376.15L264.35 283.7L325.58 360.5L553.06 323.91L568.36 418.97Z" id="eaVO2HV0F"></path><linearGradient id="gradienta4JXqOSWb3" gradientUnits="userSpaceOnUse" x1="235.42" y1="322.11" x2="288.32" y2="650.91"><stop style="stop-color: #29751f;stop-opacity: 1" offset="0%"></stop><stop style="stop-color: #1e3919;stop-opacity: 1" offset="17.90409312553275%"></stop><stop style="stop-color: #192916;stop-opacity: 1" offset="100%"></stop><stop style="stop-color: #253e1f;stop-opacity: 1" offset="100%"></stop></linearGradient><path d="M84.47 211.07L519.64 139.08L532.82 217.64L550.37 326.72L114.36 396.87L84.47 211.07Z" id="eqwUL0fHv"></path><linearGradient id="gradientb1QV4nKdUK" gradientUnits="userSpaceOnUse" x1="207.18" y1="184.83" x2="550.37" y2="326.72"><stop style="stop-color: #00b1c3;stop-opacity: 1" offset="0%"></stop><stop style="stop-color: #305be9;stop-opacity: 1" offset="100%"></stop></linearGradient><path d="M84.64 212.11L518.5 134.47L573.28 418.18L129.28 489.61L84.64 212.11Z" id="fhIAEEUaB"></path><path d="M103.82 171.3L490.31 175.7L552.61 253.68L551.36 363.55L101.68 358.42L103.82 171.3Z" id="h45OAF0iM"></path><radialGradient id="gradientc7iE9dYf5" gradientUnits="userSpaceOnUse" cx="402.87" cy="224.13" r="182.19"><stop style="stop-color: #00b8cb;stop-opacity: 1" offset="0%"></stop><stop style="stop-color: #0057ff;stop-opacity: 1" offset="100%"></stop></radialGradient><path d="M550.29 457.47L100.61 452.35L101.71 356.07L116.12 356.23L166.34 231.75L218.79 357.4L270.59 272.43L318.41 358.54L551.39 361.19L550.29 457.47Z" id="cxcEJXNxm"></path><linearGradient id="gradientb5PRkYRZ93" gradientUnits="userSpaceOnUse" x1="235.16" y1="305.36" x2="231.37" y2="638.37"><stop style="stop-color: #29751f;stop-opacity: 1" offset="0%"></stop><stop style="stop-color: #1e3919;stop-opacity: 1" offset="17.90409312553275%"></stop><stop style="stop-color: #192916;stop-opacity: 1" offset="100%"></stop><stop style="stop-color: #253e1f;stop-opacity: 1" offset="100%"></stop></linearGradient><path d="M103.82 171.3L494.36 175.75L552.67 248.83L550.29 457.47L100.61 452.35L103.82 171.3Z" id="c2pKSxabgQ"></path><path d="M497.74 171.4L557.09 246.8L547.67 250.8L489.46 250.14L492.25 181.41L497.74 171.4Z" id="a11uAP3Jv2"></path><path d="M439.02 224C441.28 243.95 426.91 261.98 406.96 264.24C387 266.49 368.97 252.12 366.71 232.17C364.46 212.21 378.83 194.18 398.78 191.93C418.74 189.67 436.77 204.04 439.02 224Z" id="b4CXRksUf"></path></defs><g><g><g><use xlink:href="#b2rPvnYI4T" opacity="0.7" fill="#1296c8" fill-opacity="1"></use></g><g><use xlink:href="#i2k3o2bgnv" opacity="1" fill="url(#gradientbnzkWxg6f)"></use><g><use xlink:href="#i2k3o2bgnv" opacity="1" fill-opacity="0" stroke="#1e3919" stroke-width="10" stroke-opacity="1"></use></g></g><g><use xlink:href="#dsJuPPDim" opacity="1" fill="url(#gradientd22f2BPf4)"></use></g><g><g><use xlink:href="#b1lDuJ00XP" opacity="1" fill-opacity="0" stroke="#e3e3e3" stroke-width="10" stroke-opacity="1"></use></g></g><g><use xlink:href="#eaVO2HV0F" opacity="1" fill="url(#gradienta4JXqOSWb3)"></use><g><use xlink:href="#eaVO2HV0F" opacity="1" fill-opacity="0" stroke="#1e3919" stroke-width="10" stroke-opacity="1"></use></g></g><g><use xlink:href="#eqwUL0fHv" opacity="1" fill="url(#gradientb1QV4nKdUK)"></use></g><g><g><use xlink:href="#fhIAEEUaB" opacity="1" fill-opacity="0" stroke="#e3e3e3" stroke-width="10" stroke-opacity="1"></use></g></g><g><use xlink:href="#h45OAF0iM" opacity="1" fill="url(#gradientc7iE9dYf5)"></use></g><g><use xlink:href="#cxcEJXNxm" opacity="1" fill="url(#gradientb5PRkYRZ93)"></use><g><use xlink:href="#cxcEJXNxm" opacity="1" fill-opacity="0" stroke="#1e3919" stroke-width="10" stroke-opacity="1"></use></g></g><g><g><use xlink:href="#c2pKSxabgQ" opacity="1" fill-opacity="0" stroke="#e3e3e3" stroke-width="10" stroke-opacity="1"></use></g></g><g><use xlink:href="#a11uAP3Jv2" opacity="1" fill="#d2d2d2" fill-opacity="1"></use><g><use xlink:href="#a11uAP3Jv2" opacity="1" fill-opacity="0" stroke="#d2d2d2" stroke-width="1" stroke-opacity="1"></use></g></g><g><use xlink:href="#b4CXRksUf" opacity="1" fill="#d4c91f" fill-opacity="1"></use></g></g></g></svg>