<?xml version="1.0" encoding="UTF-8"?>
<svg width="40" height="54" enable-background="new 0 0 32 32" version="1.1" viewBox="0 0 40 54" xml:space="preserve" xmlns="http://www.w3.org/2000/svg"><g transform="matrix(.076595 0 0 .076595 .6846 1.0549)"><circle cx="252.18" cy="652.07" r="39.167" fill="#ff2067"/><g transform="matrix(-.18527 0 0 .18527 482.24 -1.2914)"/><g transform="matrix(.4796 0 0 .4796 12.377 -39.209)" fill="#ff2067"><path d="m798.4 393.9c-35.3 0-68.3 9.8-96.7 26.5-2.9-7.1-5.7-14.2-8.4-21.2-0.1-0.4-0.3-0.8-0.4-1.1-7.4-19.4-13.7-38.1-18.7-54.5-0.1-0.4-0.4-0.8-0.6-1.2 0-0.9 0.2-1.8 0-2.8l-10.2-54.5c0.6-4.4 2.5-11.4 5.6-14.4 7-7 8.5-17.2 3.9-25.8-7.4-13.7-29.4-22-58.9-22-10.6 0-21.4 1.1-32.3 3.2-9 1.8-14.9 10.6-13.1 19.6 1.7 9 11.6 14.8 19.6 13.2 19.6-3.9 39.2-2.6 48.7 0.1-6.1 12-6.9 24.3-6.9 25.7-0.1 1.5 0 2.9 0.3 4.2l8 42.9c-39.5 0.2-129.1 0.6-185.9-0.1l-8.7-0.1c-13 0-24.6 0.4-34.5 1.1v-9.6c5.3-3.3 13.6-7.2 25.6-9.1 9.4-1.4 44.5-9.9 44.2-25.2-0.2-11-15.8-12.7-21.6-13.3-5.4-0.6-13.2-1.7-22.4-2.9-28-3.8-66.3-9-94-9-22.8 0-34.1 3.5-37.7 11.6-2.5 5.5-0.8 11.6 5 18.2 23.3 26.5 52.3 34.3 67.6 36.7v7.7 0.4c-8.9 2.7-14.8 6.3-18 10.9-0.6 0.8-25.8 33.7-55.8 73.4-29.2-18-63.5-28.6-100.2-28.6-106 0-191.9 85.9-191.9 191.5 0 105.7 85.9 191.7 191.6 191.7 92.3 0 169.5-65.6 187.6-152.6 12.8 1.2 24.2 2 34.1 2.5 6.8 10.5 17.2 18.2 29.4 21.8v30.2h-13.5c-8.1 0-14.7 6.6-14.7 14.7s6.6 14.7 14.7 14.7h56.4c8.1 0 14.7-6.6 14.7-14.7s-6.6-14.7-14.7-14.7h-13.4v-30.2c21.7-6.4 37.7-26.3 37.7-50.1 0-8-1.9-15.4-5.1-22.2l156-143.4c1 2.4 1.9 4.7 2.9 7.2-40.8 35.2-66.8 87.1-66.8 145.1 0 105.7 85.9 191.7 191.6 191.7s191.5-86 191.5-191.7c0-105.6-86-191.5-191.6-191.5zm0 338.9c-81.3 0-147.4-66.1-147.4-147.4 0-39.9 16-76.1 41.8-102.6 23.6 48.1 53.9 94.8 88.3 113.2 3.3 5.6 9.1 9.6 16 9.6 10.4 0 18.8-8.4 18.8-18.8 0-8.4-5.7-15.3-13.4-17.7-28.1-10-57.9-55.8-82.9-107.9 22.8-14.5 49.8-23 78.7-23 81.2 0 147.3 66.1 147.3 147.3s-66 147.3-147.2 147.3zm-405.5-141.5c0.1-2 0.3-3.9 0.3-5.9 0-56.9-25.1-107.9-64.6-143 20.1-26.6 39.6-52.1 54.1-71.1 11.6 43.8 35.1 122.3 54.2 184.8-11.9 8.5-19.9 21.8-21.6 37.1-6.8-0.6-14.3-1.2-22.4-1.9zm-44-4.5c-34.6-4-74.2-9.2-115.2-15.5 9.7-14.7 37.5-52.5 68.2-93.4 28.9 26.9 47 65.1 47 107.6 0.1 0.4 0 0.8 0 1.3zm-147.3 146c-81.2 0-147.3-66.1-147.3-147.4s66.1-147.3 147.3-147.3c26.8 0 51.8 7.3 73.5 19.8-34.3 45.7-67.5 90.8-73.7 102.1-1.2 2.3-2.8 5.4-4.2 8.8-8.2 2-14.4 9.1-14.4 17.9 0 10.4 8.4 18.8 18.8 18.8 3.6 0 6.7-1.2 9.5-3 1.9 0.2 3.8 0.2 5.9-0.1 12.4 1.9 63.3 9.7 115.6 16 4.2 0.5 8.1 1 12.1 1.4-15.5 64.7-73.7 113-143.1 113zm267.4-186.4c-20.8-68.2-42.5-140.9-53.2-180.5 8.2-0.5 17.4-0.7 27.3-0.7l8.8 0.1c60.9 0.9 159.6 0.3 194.1 0 2.9 9 7 21 11.9 34.5l-166.4 152.6c-6.8-3.6-14.3-5.8-22.5-6z" fill="#ff2067"/></g></g></svg>
