<?xml version="1.0" encoding="UTF-8"?>
<svg width="46" height="59" enable-background="new 0 0 32 32" version="1.1" viewBox="0 0 46 59" xml:space="preserve" xmlns="http://www.w3.org/2000/svg" xmlns:osb="http://www.openswatchbook.org/uri/2009/osb" xmlns:xlink="http://www.w3.org/1999/xlink"><defs><radialGradient id="radialGradient6282" cx="14003" cy="35.43" r="3609" gradientTransform="matrix(1.5048 -.0085208 .0094354 1.7208 1199.6 655.35)" gradientUnits="userSpaceOnUse"><stop stop-color="#ffa97b" offset="0"/><stop stop-color="#ffa97b" stop-opacity="0" offset="1"/></radialGradient></defs><g><g transform="matrix(.066251 0 0 .065193 -67.945 11.743)" fill="#006e6b" stroke="#b78700"><g transform="matrix(.096195 0 0 -.096195 -769.65 363.14)" fill="#ffa97b" stroke="#b79000"><path d="m22003 5487.9c-755.1-55.1-1533.8-381.5-2111.9-886.9-713.8-623.3-1142.5-1488.6-1219.2-2460-84.6-1061.9 403.1-2403 1453.2-3984 369.7-560.4 890.8-1242.8 1347-1771.7 536.8-619.4 617.5-688.3 798.4-688.3 145.5 0 232 57 442.4 289.1 1266.4 1390.2 2294.8 2931.9 2790.4 4184.5 291 739.4 414.9 1406 365.7 1980.2-82.6 971.4-509.3 1828.8-1219.2 2450.2-723.6 633.2-1689.1 955.7-2646.8 886.9z" fill="url(#radialGradient6282)" stroke="#b79000"/></g></g><g transform="matrix(.055425 0 0 .05454 -2.4413 11.514)" fill="#c16e6b"><g transform="matrix(.1 0 0 -.1 -905.18 384.21)" fill="#c16e6b"><path d="m13374 4926.3c-755.1-55.1-1533.8-381.5-2111.9-886.9-713.8-623.3-1142.5-1488.6-1219.2-2460-84.6-1061.9 403.1-2403 1453.2-3984 369.7-560.4 890.8-1242.8 1347-1771.7 536.8-619.4 617.5-688.3 798.4-688.3 145.5 0 232 57 442.4 289.1 1266.4 1390.2 2294.8 2931.9 2790.4 4184.5 291 739.4 414.9 1406 365.7 1980.2-82.6 971.4-509.3 1828.8-1219.2 2450.2-723.6 633.2-1689.1 955.7-2646.8 886.9z" fill="#c16e6b"/></g></g><g id="camera" transform="matrix(.8125 0 0 .8125 10 10.439)" clip-rule="evenodd" fill="#fffff7" fill-rule="evenodd"><path d="m16 10.001c-4.419 0-8 3.581-8 8 0 4.418 3.581 8 8 8 4.418 0 8-3.582 8-8s-3.582-8-8-8zm4.555 11.905c-2.156 2.516-5.943 2.807-8.459 0.65-2.517-2.156-2.807-5.944-0.65-8.459 2.155-2.517 5.943-2.807 8.459-0.65 2.515 2.155 2.806 5.944 0.65 8.459z"/><path d="m16 14.001c-2.209 0-3.999 1.791-4 3.999v2e-3c0 0.275 0.224 0.5 0.5 0.5s0.5-0.225 0.5-0.5v-2e-3c1e-3 -1.656 1.343-2.999 3-2.999 0.276 0 0.5-0.224 0.5-0.5s-0.224-0.5-0.5-0.5z"/><path d="m29.492 9.042-4.334-0.723-1.373-3.434c-0.459-1.145-1.553-1.885-2.785-1.885h-10c-1.232 0-2.326 0.74-2.786 1.886l-1.372 3.433-4.333 0.723c-1.454 0.241-2.509 1.485-2.509 2.958v15c0 1.654 1.346 3 3 3h26c1.654 0 3-1.346 3-3v-15c0-1.473-1.055-2.717-2.508-2.958zm0.508 17.958c0 0.553-0.447 1-1 1h-26c-0.553 0-1-0.447-1-1v-15c0-0.489 0.354-0.906 0.836-0.986l5.444-0.907 1.791-4.478c0.153-0.379 0.52-0.629 0.929-0.629h10c0.408 0 0.775 0.249 0.928 0.629l1.791 4.478 5.445 0.907c0.482 0.08 0.836 0.497 0.836 0.986z"/></g></g></svg>
