<?xml version="1.0" encoding="UTF-8"?>
<svg width="40" height="54" enable-background="new 0 0 32 32" version="1.1" viewBox="0 0 40 54" xml:space="preserve" xmlns="http://www.w3.org/2000/svg"><g transform="matrix(.076595 0 0 .076595 .6846 1.0549)" fill="#a50000"><circle cx="252.18" cy="652.07" r="39.167"/><g transform="matrix(.41617 0 0 .41617 39.928 48.285)"><path d="m10 157.5v451.8h676.4l0.6-451.8c0-11.3-9.1-20.5-20.3-20.5h-636.4c-11.2 0.1-20.3 9.2-20.3 20.5z"/><path d="m381.8 757.7h298.2c0-0.8-0.1-1.7-0.1-2.5 0-6.1 3.6-31.8 5.6-38.4 7.5-25.3 41.1-96.6 128.3-96.6 88.8 0 120.8 71.3 128.3 96.6 1.9 6.6 5.6 32.4 5.6 38.4 0 0.9-0.1 1.7-0.1 2.5h22.2c11.2 0 20.3-9.1 20.3-20.5v-105.2c0-5.2-2-9.9-5.2-13.5v-153c0-118.3-77.4-179.5-80.7-182.1-3.6-2.7-7.9-4.2-12.3-4.2h-163.4c-6 0-11.3 2.7-15.1 6.9v336.9c0 8.3-5.3 13.6-13.5 13.6h-387.8c65.1 25.2 69.6 91.9 69.7 121.1zm367-317.7v-119.8h135.5c13.5 12.5 50.5 52.6 58.4 119.8z"/><path d="m51.2 631.4c0 0.2-0.1 105.8-0.1 105.8 0 11.3 9.1 20.5 20.3 20.5h42.8c-8.1-63.1 49-120.7 80.4-126.3z"/><path d="m813.7 647.5c59.5 0 107.7 48.2 107.7 107.8 0 59.5-48.2 107.7-107.7 107.7s-107.7-48.2-107.7-107.7c0-59.6 48.2-107.8 107.7-107.8zm-49.8 107.7c0 27.5 22.3 49.8 49.8 49.8s49.8-22.3 49.8-49.8-22.3-49.8-49.8-49.8-49.8 22.3-49.8 49.8z"/><path d="m249 647.5c59.5 0 107.7 48.2 107.7 107.8 0 59.5-48.2 107.7-107.7 107.7s-107.7-48.2-107.7-107.7c-0.1-59.6 48.2-107.8 107.7-107.8zm-49.8 107.7c0 27.5 22.3 49.8 49.8 49.8s49.8-22.3 49.8-49.8-22.3-49.8-49.8-49.8-49.8 22.3-49.8 49.8z"/></g><g transform="matrix(-.18527 0 0 .18527 482.24 -1.2914)"><g transform="matrix(.1 0 0 -.1 0 511)" fill="#a50000"><path d="m2172 4972.5c-222.8-59-487.2-192.2-696.9-347.3l-174.8-131.1-26.2 63.3c-39.3 96.1-201 235.9-294.9 253.4-216.2 39.3-415.1-41.5-509-207.5-96.1-170.4-89.6-216.3 124.5-930.6 107-360.4 696.8-2335.2 1310.7-4390.8 613.8-2053.4 1133.7-3772.6 1153.4-3818.5s67.7-111.4 107-144.2c211.9-185.7 568-126.7 692.5 115.8 94 181.3 98.3 161.6-397.6 1824-253.4 845.4-460.9 1551-460.9 1566.3s111.4 142 246.8 279.6c292.8 301.6 441.4 384.6 701.3 402.1 216.3 13.1 421.6-41.5 1081.3-290.5 806.1-303.6 1465.8-504.6 2022.8-616 148.6-28.4 303.7-37.1 633.5-39.3 380.1 0 460.9 6.5 629.1 48.1 423.8 109.2 734 292.7 1070.4 637.9 157.3 159.5 211.9 229.4 203.2 257.8-17.5 54.6-517.7 1730.1-1127.2 3781.3-281.8 939.3-515.5 1706.1-524.3 1703.9-6.6-4.4-124.5-126.7-262.1-273.1-515.5-548.3-753.6-668.4-1332.5-668.4-297.1 0-548.3 43.7-952.4 161.6-299.3 85.2-1020.2 336.4-1404.6 489.3-489.3 192.2-926.2 290.5-1389.3 308-216.3 6.4-290.6 2.1-423.8-35.1zm533-574.5c10.9-15.3 360.4-1166.5 360.4-1184 0-13.1-63.3-24-144.2-28.4-179.1-4.4-456.6-98.3-620.4-205.4-65.5-43.7-218.5-179.1-336.4-299.3-118-122.3-220.6-216.3-225-211.9-15.3 15.3-377.9 1188.4-377.9 1221.1 0 37.1 323.3 349.5 471.9 458.7 139.8 100.5 406.3 229.4 535.2 255.6 78.6 15.4 325.4 11.1 336.4-6.4zm2665-801.7c133.3-32.8 343-78.6 469.7-98.3 126.7-21.8 231.6-39.3 233.7-41.5 13.1-10.9 375.7-1201.5 369.2-1210.2-37.1-35-878.1 144.2-1306.3 279.6l-146.3 45.9-98.3 310.2c-52.4 170.4-137.6 441.3-187.9 602.9-50.2 161.7-96.1 305.8-102.7 321.1-6.5 15.3 96.1-8.7 260-61.2 148.5-45.8 377.9-113.6 508.9-148.5zm-1786.9-679.4c118-37.1 362.6-124.5 541.7-194.4 181.3-67.7 421.6-155.1 537.4-194.4l207.5-67.7 229.4-738.3c144.2-465.3 220.6-738.4 205.3-742.7-26.2-6.6-288.3 85.2-827.9 290.5-181.3 69.9-415 146.4-522.1 174.8l-196.6 50.2-227.2 727.4c-122.3 399.8-225 736.2-225 744.9 0.1 30.5 59.1 19.6 277.5-50.3zm4696.7-1131.5 225-749.3-50.2-43.7c-310.2-270.9-803.9-447.8-1192.7-428.1l-139.8 6.5-227.2 738.3c-126.7 406.3-222.8 744.9-216.3 751.5 6.6 6.6 107 21.8 220.6 30.6 373.5 30.6 760.2 172.6 1004.9 367 61.2 45.9 120.1 83 131.1 80.8 13-2.2 122.2-343 244.6-753.6zm-4633.3-426c2.2 0 83-262.1 181.3-581.1 98.3-318.9 183.5-594.2 187.9-613.8 8.8-28.4-19.6-39.3-163.8-59-386.7-54.6-629.1-179.1-950.2-489.3l-218.4-211.9-181.5 583.2c-98.3 321.1-179.1 598.6-179.1 616 0 17.5 115.8 152.9 257.8 297.1 225 233.7 277.4 275.2 441.3 356.1 201 96.1 369.2 135.4 524.3 118 54.5-6.6 100.4-13.1 100.4-15.3zm2245.6-723.1c310.2-87.4 744.9-176.9 967.7-198.8l159.5-15.3 56.8-187.9c30.6-102.7 115.8-373.5 185.7-598.5 69.9-227.2 128.9-423.8 128.9-439.1 0-59-653.2 78.6-1190.5 251.2l-270.9 85.2-98.3 312.4c-52.4 170.4-133.3 428.2-179.1 572.3-43.7 144.2-85.2 275.2-91.8 292.7-8.8 24-2.2 28.4 28.4 15.3 21.8-8.6 159.4-48 303.6-89.5z" fill="#a50000"/></g></g></g></svg>
