<?xml version="1.0" encoding="UTF-8"?>
<svg width="40" height="54" enable-background="new 0 0 32 32" version="1.1" viewBox="0 0 40 54" xml:space="preserve" xmlns="http://www.w3.org/2000/svg"><g transform="matrix(.076595 0 0 .076595 .6846 1.0549)" fill="#a50000"><circle cx="252.18" cy="652.07" r="39.167"/><g transform="matrix(.47955 0 0 .47955 12.378 -20.442)"><path d="m10 157.5v451.8h676.4l0.6-451.8c0-11.3-9.1-20.5-20.3-20.5h-636.4c-11.2 0.1-20.3 9.2-20.3 20.5z"/><path d="m381.8 757.7h298.2c0-0.8-0.1-1.7-0.1-2.5 0-6.1 3.6-31.8 5.6-38.4 7.5-25.3 41.1-96.6 128.3-96.6 88.8 0 120.8 71.3 128.3 96.6 1.9 6.6 5.6 32.4 5.6 38.4 0 0.9-0.1 1.7-0.1 2.5h22.2c11.2 0 20.3-9.1 20.3-20.5v-105.2c0-5.2-2-9.9-5.2-13.5v-153c0-118.3-77.4-179.5-80.7-182.1-3.6-2.7-7.9-4.2-12.3-4.2h-163.4c-6 0-11.3 2.7-15.1 6.9v336.9c0 8.3-5.3 13.6-13.5 13.6h-387.8c65.1 25.2 69.6 91.9 69.7 121.1zm367-317.7v-119.8h135.5c13.5 12.5 50.5 52.6 58.4 119.8z"/><path d="m51.2 631.4c0 0.2-0.1 105.8-0.1 105.8 0 11.3 9.1 20.5 20.3 20.5h42.8c-8.1-63.1 49-120.7 80.4-126.3z"/><path d="m813.7 647.5c59.5 0 107.7 48.2 107.7 107.8 0 59.5-48.2 107.7-107.7 107.7s-107.7-48.2-107.7-107.7c0-59.6 48.2-107.8 107.7-107.8zm-49.8 107.7c0 27.5 22.3 49.8 49.8 49.8s49.8-22.3 49.8-49.8-22.3-49.8-49.8-49.8-49.8 22.3-49.8 49.8z"/><path d="m249 647.5c59.5 0 107.7 48.2 107.7 107.8 0 59.5-48.2 107.7-107.7 107.7s-107.7-48.2-107.7-107.7c-0.1-59.6 48.2-107.8 107.7-107.8zm-49.8 107.7c0 27.5 22.3 49.8 49.8 49.8s49.8-22.3 49.8-49.8-22.3-49.8-49.8-49.8-49.8 22.3-49.8 49.8z"/></g></g></svg>
