<?xml version="1.0" encoding="UTF-8"?>
<svg width="40" height="54" enable-background="new 0 0 32 32" version="1.1" viewBox="0 0 40 54" xml:space="preserve" xmlns="http://www.w3.org/2000/svg"><circle cx="19.768" cy="16.068" r="11.733" fill="#ea3e00"/><g transform="matrix(.076595 0 0 .076595 .6846 1.0549)"><circle cx="252.18" cy="652.07" r="39.167" fill="#ea3e06"/><g transform="matrix(.31031 0 0 .31031 105.82 41.525)" fill="#fff"><g fill="#fff"><g fill="#fff"><path transform="matrix(42.073 0 0 42.073 -369.81 -178.2)" d="m20.314 26.714c-0.45324-0.05186-0.9642-0.23948-1.3741-0.50457-0.6049-0.39118-1.0661-0.97816-1.2863-1.6369-0.42105-1.26-0.05304-2.4256 1.0935-3.4636 0.3351-0.30337 0.80914-0.71162 0.99958-0.86086l0.1476-0.11566-0.35786-0.31263c-0.51708-0.45172-0.44003-0.43362-1.0376-0.24362-0.6166 0.19605-0.8111 0.24792-1.3248 0.35328-0.74886 0.1536-1.5276 0.25087-2.4951 0.31167-0.66771 0.04196-2.7771 0.08304-4.2964 0.08367l-2.2622 5.45e-4 -0.039648-0.50564-0.039648-0.42634 1.5565 0.02162c1.5582 0.06409 4.8762-0.03639 6.5672-0.19888 0.57756-0.0555 1.1289-0.13692 1.6233-0.23973 0.44505-0.09255 0.50743-0.11554 0.50727-0.18694-6.7e-5 -0.02868-0.25664-0.25726-0.63613-0.56672-0.34981-0.28526-0.73139-0.60004-0.84795-0.69953-1.7611-1.5031-2.9849-3.2852-3.4069-4.9614-0.21997-0.87368-0.21963-1.8515 9.53e-4 -2.7275 0.24846-0.98676 0.80283-1.9113 1.6282-2.7155 1.0641-1.0367 2.2865-1.52 4.0749-1.611 2.0019-0.10191 3.7562 0.70521 4.9988 2.2999 0.49409 0.63408 0.96663 1.4608 1.168 2.0434 0.35016 1.0131 0.33134 2.1357-0.05527 3.2973-0.62934 1.8908-1.9652 3.6093-3.8548 4.9591-0.31922 0.22803-1.157 0.76007-1.1969 0.76007-0.06199 0 0.0038 0.10156 0.28545 0.44091 0.1961 0.23624 0.33324 0.3772 0.37788 0.38841 0.04343 0.0109 0.17914-0.01572 0.35695-0.07002 0.85639-0.26153 1.7832-0.43244 3.0081-0.55472 0.45596-0.04552 0.82506-0.05016 3.8268-0.04811 1.8272 0.0012 3.5335 0.01205 3.7917 0.02401l0.46959 0.02174v0.8949l-0.28736-0.01686c-0.33296-0.01954-2.1192-0.08341-3.6376-0.13006-1.0566-0.03247-2.388-0.02083-3.6726 0.03211-1.0721 0.04418-1.7747 0.13235-2.4482 0.30721-0.3216 0.0835-0.71566 0.21354-0.75385 0.24877-0.01102 0.01017 0.08157 0.13184 0.20576 0.27039 0.88377 0.98594 1.4175 1.8514 1.7177 2.7853 0.19004 0.59124 0.20677 1.0762 0.05257 1.5236-0.30223 0.87684-1.3294 1.6045-2.4455 1.7324-0.2727 0.03125-0.40436 0.03061-0.70194-0.0034zm0.49061-0.87944c0.68884-0.08431 1.2191-0.30395 1.5607-0.64645 0.47838-0.47963 0.50938-1.1605 0.09237-2.0281-0.28113-0.58492-0.6868-1.1346-1.3833-1.8742-0.36088-0.38323-0.44379-0.43294-0.59909-0.35924-0.16707 0.07928-0.68211 0.48503-0.93617 0.73752-0.43547 0.43278-0.75526 0.90695-0.96241 1.427-0.39606 0.99436-0.34584 1.7269 0.15285 2.2294 0.29023 0.29243 0.61915 0.43684 1.2023 0.52784 0.32913 0.05136 0.34252 0.05115 0.8728-0.01375zm-0.97981-7.7546c0.92821-0.56453 1.5554-1.0597 2.3555-1.8598 1.1753-1.1753 1.8575-2.1989 2.2844-3.4273 0.1919-0.55227 0.25242-0.85909 0.27054-1.3716 0.033507-0.94782-0.14121-1.5327-0.71514-2.394-0.71052-1.0662-1.5047-1.8134-2.4093-2.2669-0.94008-0.47125-2.3809-0.63163-3.5466-0.39479-0.83193 0.16903-1.6816 0.59098-2.2946 1.1395-1.2281 1.0989-1.8034 2.3258-1.6835 3.5897 0.1644 1.7317 1.1271 3.5335 2.7882 5.2181 0.64409 0.65324 1.4479 1.3631 2.1027 1.8569 0.3072 0.23169 0.32181 0.23014 0.84775-0.08973z" fill="#fff"/></g></g></g></g></svg>
