<?xml version="1.0" encoding="UTF-8"?>
<svg width="200" height="200" version="1.1" viewBox="0 0 200 200" xmlns="http://www.w3.org/2000/svg">
 <g transform="matrix(.13032 0 0 .13032 -46.492 -33.841)">
  <path d="m1891.4 1026.7c4.1836-301.7-189.75-592.64-468.6-706.93-273.95-119.33-614.25-57.57-827.96 151.57-216.56 201.22-295.61 532.73-194.51 810.31 97.755 287.72 380.39 499.87 684.37 511.28 295.5 19.097 590.85-152.2 722.77-416.96 55.276-107.56 84.124-228.37 83.94-349.27zm-973.29 0v-146.87h90.032c2.6682-89.047-15.29-193.61 56.507-261.22 66.372-51.214 154.38-28.481 231.93-33.614 38.909-11.519 37.117 17.663 34.428 47.741v98.659c-47.755 2.4898-96.981-5.9359-143.49 6.2997-50.076 29.173-29.284 94.128-33.755 142.14h169.26c-7.7244 48.957-15.449 97.913-23.173 146.87h-146.09v442.8h-145.62v-442.8h-90.032z" stroke-width="1.5658"/>
 </g>
</svg>
