<?xml version="1.0" encoding="UTF-8"?>
<svg width="40" height="54" enable-background="new 0 0 32 32" version="1.1" viewBox="0 0 40 54" xml:space="preserve" xmlns="http://www.w3.org/2000/svg"><g transform="matrix(.076595 0 0 .076595 .6846 1.0549)"><circle cx="252.18" cy="652.07" r="39.167" fill="#365671"/><g transform="matrix(-.18527 0 0 .18527 482.24 -1.2914)"/><g transform="matrix(.42631 0 0 .42631 39.022 2.6527)" fill="#365671"><g transform="matrix(.1 0 0 -.1 0 511)" fill="#365671"><path d="m542 4136.2c-12.6-5.1-55.6-15.2-93.5-22.7-98.5-22.7-247.5-161.6-300.5-280.4-45.5-96-48-275.3-48-3720.4 0-3212.8 5.1-3629.5 40.4-3712.8 141.4-343.5 573.3-429.4 823.4-164.2 133.9 141.4 146.5 207.1 146.5 828.4v568.3h7779.4v-568.3c0-621.3 12.6-687 146.5-828.4 250.1-265.2 682-179.3 823.4 164.2 35.3 83.3 40.4 394 40.4 2596.5 0 2737.9 7.6 2599-146.5 2760.6-103.6 108.6-204.6 151.5-358.7 151.5s-255.1-42.9-358.7-151.5c-144-151.5-146.5-169.2-146.5-1257.8v-997.7h-7779.3v2109c0 1851.4-5.1 2121.6-40.4 2205-42.9 106.1-146.5 222.3-237.4 270.3-68.2 32.7-247.5 65.6-290.5 50.4z"/><path d="m2416.1 2782.4c-272.8-42.9-522.8-237.4-644.1-497.6-58.1-121.2-68.2-179.3-68.2-358.7 0-192 10.1-234.9 83.3-383.9 154.1-313.2 424.3-484.9 775.4-484.9 166.7 0 227.3 10.1 346 65.7 189.4 88.4 356.1 247.5 442 421.8 63.1 123.8 70.7 169.2 70.7 381.4 0 204.6-10.1 260.1-63.1 366.2-171.6 351.1-558.1 553.2-942 490z"/><path d="m3906.3 2034.8c-10.1-7.6-17.7-479.9-17.7-1048.2v-1030.5h4526.2l-10.1 714.8c-7.6 709.7-7.6 712.3-73.2 853.7-136.4 287.9-361.2 457.2-669.3 502.6-194.6 27.8-3728.1 35.4-3755.9 7.6z"/><path d="m1931.2 703.7c-179.3-80.8-239.9-209.6-239.9-522.8v-224.8h1768v783h-724.9c-550.7-2.5-745.1-10.1-803.2-35.4z"/></g></g></g></svg>
