<?xml version="1.0" encoding="utf-8"?>
<!-- Svg Vector Icons : http://www.onlinewebfonts.com/icon -->
<!DOCTYPE svg PUBLIC "-//W3C//DTD SVG 1.1//EN" "http://www.w3.org/Graphics/SVG/1.1/DTD/svg11.dtd">
<svg version="1.1" xmlns="http://www.w3.org/2000/svg" xmlns:xlink="http://www.w3.org/1999/xlink" x="0px" y="0px" viewBox="0 0 1000 1000" enable-background="new 0 0 1000 1000" xml:space="preserve">
<metadata> Svg Vector Icons : http://www.onlinewebfonts.com/icon </metadata>
<g><g transform="translate(0.000000,511.000000) scale(0.100000,-0.100000)"><path d="M4732,5000.9c-755.1-55.1-1533.8-381.5-2111.9-886.9c-713.8-623.3-1142.5-1488.6-1219.2-2460C1316.3,592.1,1804-749,2854.1-2330c369.7-560.4,890.8-1242.8,1347-1771.7c536.8-619.4,617.5-688.3,798.4-688.3c145.5,0,232,57,442.4,289.1C6708.3-3110.7,7736.7-1569,8232.3-316.4c291,739.4,414.9,1406,365.7,1980.2c-82.6,971.4-509.3,1828.8-1219.2,2450.2C6655.2,4747.2,5689.7,5069.7,4732,5000.9z M5677.9,4629.2c648.9-139.6,1158.2-418.9,1643.9-902.6c302.8-302.8,499.5-576.2,664.7-928.2c322.5-682.3,391.3-1474.8,196.7-2249.6C7868.5-709.6,6926.5-2302.5,5554-3899.2c-320.5-375.6-515.2-576.2-552.6-576.2c-84.6,0-800.3,829.8-1358.8,1575.1c-1354.9,1809.1-2027.4,3396-1929.1,4548.4c72.8,857.4,399.2,1539.7,1012.7,2131.6c503.4,483.7,1071.7,766.9,1760,879C4747.7,4702,5422.2,4684.3,5677.9,4629.2z"/><path d="M4848,3231.1c-733.5-64.9-1368.6-584-1610.5-1315.5c-51.1-155.3-55.1-188.8-55.1-501.4c-2-379.5,17.7-477.8,145.5-751.2C3615.1,47.4,4153.9-343.9,4828.4-426.5c318.6-39.3,633.2,21.6,967.5,188.8c383.4,190.8,654.8,462.1,845.6,845.6c119.9,241.9,165.2,395.3,182.9,629.3c31.5,367.7-47.2,733.5-220.2,1038.3C6234.4,2922.3,5554,3292,4848,3231.1z M5373.1,2879.1c546.7-131.8,963.6-544.7,1101.2-1089.4c53.1-214.3,53.1-556.5,0-770.8C6338.6,482,5931.5,69,5394.7-74.5c-208.5-55.1-582.1-55.1-790.5,0C4067.4,69,3660.3,480,3524.6,1018.8c-55.1,214.3-53.1,556.5,0,770.8c139.6,544.7,550.6,955.7,1091.4,1087.4C4834.3,2930.2,5152.8,2930.2,5373.1,2879.1z"/></g></g>
</svg>