<?xml version="1.0" encoding="UTF-8"?>
<svg width="40" height="54" enable-background="new 0 0 32 32" version="1.1" viewBox="0 0 40 54" xml:space="preserve" xmlns="http://www.w3.org/2000/svg"><g transform="matrix(.076595 0 0 .076595 .6846 1.0549)"><circle cx="252.18" cy="652.07" r="39.167" fill="#45012e"/><g transform="matrix(.37142 0 0 .37142 66.47 28.742)" fill="#450131"><g transform="matrix(.1 0 0 -.1 0 512)" fill="#450131"><path d="m4694.1 4975.9c-172.6-57.5-299.2-136.2-416.2-255.1-101.6-105.5-226.3-326-247.4-441.1l-11.5-65.2h-648.1v-2838.3h3241.1v2838.4l-318.3 3.8-318.4 5.8-32.6 105.5c-55.6 172.6-115.1 270.4-249.3 402.7-209 207.1-410.4 287.7-711.5 287.7-117.1-0.1-197.6-13.5-287.8-44.2zm519.8-281.9c128.5-40.3 258.9-130.4 339.5-235.9 51.8-69 126.6-222.5 113.2-235.9-3.8-3.8-310.7-5.8-680.8-3.8l-675.1 5.8 46 97.8c151.4 327.9 508.1 481.3 857.2 372z"/><path d="m2273.9 4187.7c-161.1-57.5-266.6-178.4-303-343.3-15.3-69-19.2-412.3-15.3-1116.2 5.8-1006.9 5.8-1016.4 47.9-1095.1 53.7-99.7 182.2-212.9 272.3-237.8 38.4-9.6 191.8-19.2 343.3-19.2h272.3v2838.4h-272.3c-178.4-1.9-299.2-11.5-345.2-26.8z"/><path d="m7110.6 2793.4v-1419.2l303 5.8c301.1 5.8 304.9 5.8 398.9 63.3 57.5 36.4 115.1 94 151.5 151.5l57.5 94 5.8 1062.5c3.8 736.4-1.9 1087.4-17.2 1143-26.9 105.5-188 262.7-297.3 297.3-46 13.4-189.9 23-341.4 23h-260.8z"/><path d="m1495.2 2804.9c-117-36.4-197.5-105.5-262.7-222.5l-57.5-103.6v-767.1c0-747.9 1.9-769 40.3-843.8 88.2-163 234-257 397-258.9h90.1v2224.6l-61.4-1.9c-34.5 0.1-99.7-11.4-145.8-26.8z"/><path d="m8284.3 1719.5 5.8-1120 95.9 5.8c180.3 13.4 312.6 101.7 385.5 262.7 46 95.9 46 99.7 46 832.3 0 502.5-7.7 759.5-23 809.3-26.8 95.9-132.3 218.6-226.3 266.6-40.3 21.1-122.8 44.1-180.3 49.9l-107.4 13.4z"/><path d="m1951.7-261.7v-1622.5h6079.4v3243l-71-57.5c-126.6-101.7-214.8-122.7-546.6-132.3l-303-7.7v-147.7l130.4-5.8 128.5-5.8v-719h-256.9l-11.5-90.1c-5.8-51.8-13.4-105.5-15.3-120.8s-55.6-55.6-117-90.1l-113.1-63.3-120.8 67.1-122.7 69v228.2h-268.4v728.8h268.3v153.4h-3241.2v-153.4h268.4v-728.8h-266.5l-11.6-237.8-113.1-63.3-113-63.3-120.8 67.1-122.7 69v228.3h-268.4v728.8h268.4v149.6l-310.7 7.7c-337.5 7.7-418.1 28.8-565.8 141.9l-63.3 47.9z"/><path d="m2818.5 643.6 5.8-159.2 312.6-5.8 310.7-3.8v326h-634.8z"/><path d="m6554.4 637.8v-163h613.7v326h-613.7z"/><path d="m1082.9-357.5c-111.2-40.3-197.5-117-251.2-226.3l-49.9-99.7v-1321.3c0-949.3 5.8-1344.4 23-1396.2 28.8-99.7 130.4-216.7 232.1-264.7 72.9-34.5 118.9-40.3 374-40.3h291.5v3375.4h-272.4c-178.3-2-299.2-11.6-347.1-26.9z"/><path d="m8280.4-2018.4v-1687.6h293.4c241.7 0 304.9 7.7 368.2 36.5 94 42.2 172.6 118.9 228.2 222.5 40.3 76.7 40.3 88.2 46 1378.9 5.7 1442.2 5.7 1438.4-117 1578.3-32.6 38.4-103.6 90.1-157.3 113.1-86.3 42.2-122.8 46-377.8 46h-283.8v-1687.7z"/><path d="m1955.5-2885.2c5.8-769 7.7-794 47.9-868.8 23-42.2 69-103.6 105.5-138.1 134.2-130.4-72.9-120.8 2886.3-120.8h2681.1l95.9 46c115.1 53.7 166.8 107.4 218.6 222.5 38.4 82.5 40.3 122.7 40.3 868.8v780.6h-6081.3z"/><path d="m1951.7-4200.8c0-287.7 72.9-439.2 255.1-531.2l97.8-47.9h2694.5c2692.6 0 2694.5 0 2777 40.3 101.6 47.9 203.3 164.9 232 264.7 21.1 69 32.6 423.8 13.4 423.8-3.8 0-46-24.9-90.1-57.5-174.5-120.8-46-117-2989.9-111.2l-2673.4 5.8-94 44.1c-53.7 23-124.7 65.2-159.2 92.1l-63.3 47.9v-170.9z"/></g></g></g></svg>
