<?xml version="1.0" encoding="UTF-8"?>
<svg width="40" height="54" enable-background="new 0 0 32 32" version="1.1" viewBox="0 0 40 54" xml:space="preserve" xmlns="http://www.w3.org/2000/svg"><g transform="matrix(.076595 0 0 .076595 .6846 1.0549)"><circle cx="252.18" cy="652.07" r="39.167" fill="#ffbe00"/><g transform="matrix(-.18527 0 0 .18527 482.24 -1.2914)"/><g transform="matrix(4.0764 0 0 4.0764 64.644 25.172)" fill="#ffbe00"><g fill="#ffbe00">
	<path d="m46.005 21.672c5.975 0 10.836-4.861 10.836-10.836s-4.861-10.836-10.836-10.836-10.836 4.861-10.836 10.836 4.861 10.836 10.836 10.836z"/>
	<path d="m80.7 10.78-1.279-1.85c-0.555-0.802-1.468-1.281-2.443-1.281-0.622 0-1.218 0.192-1.726 0.555l-22.381 16.01h-13.734l-22.382-16.01c-0.507-0.363-1.104-0.555-1.726-0.555-0.975 0-1.888 0.479-2.442 1.281l-1.28 1.851c-0.935 1.354-0.608 3.233 0.73 4.191l22.552 16.132v55.904c0 2.757 2.243 5 5 5h0.352c2.757 0 5-2.243 5-5v-26.166h2.127v26.166c0 2.757 2.243 5 5 5h0.352c2.757 0 5-2.243 5-5v-55.905l22.552-16.133c1.337-0.956 1.664-2.836 0.728-4.19z"/>
</g></g></g></svg>
