<?xml version="1.0" encoding="UTF-8"?>
<svg width="40" height="54" enable-background="new 0 0 32 32" version="1.1" viewBox="0 0 40 54" xml:space="preserve" xmlns="http://www.w3.org/2000/svg"><g transform="matrix(.076595 0 0 .076595 .6846 1.0549)" fill="#00b31b"><g class="" transform="matrix(1.0067 0 0 1.0067 -5.5319 -61.369)"><path d="m361.16 91.245-18 0.193 0.42 38.98c-45.773 13.285-108.53 19.738-166.47 23.573 35.097 96.284 99.357 173.77 157.84 257.13 20.718-19.655 51.11-31.983 83.46-36.01-20.8-18.109-36.634-27.966-58.833-70.438 31.27 37.085 52.579 48.467 77.623 62.006 3.263-13.094 8.938-24.638 18.721-32.674 8.667-7.12 20.026-10.654 33.53-10.344-46.874-59.763-101.67-117.05-127.83-189.44l-0.462-42.98zm-197.9 11.675-17.998 0.244s0.25 18.34 0.56 36.97c0.156 9.316 0.325 18.703 0.489 25.929 0.06 2.636 0.117 4.58 0.174 6.542-34.378 83.733-69.154 160.99-123.92 233.44 33.635-1.387 66.326-1.203 98.552-0.041 22.263-62.617 23.346-134.86 35.627-202.01 11.417 68.562 10.566 139.44 33.483 205.83 42.962 3.082 85.69 7.198 129.35 10.926-55.67-79.151-118.21-155.04-155.12-249.36-0.05-1.782-0.1-3.396-0.152-5.737-0.162-7.156-0.333-16.523-0.488-25.82-0.31-18.594-0.559-36.914-0.559-36.914z" fill="#00b31b"/></g><circle cx="252.18" cy="652.07" r="39.167"/></g></svg>
