<?xml version="1.0" encoding="UTF-8"?>
<svg width="200" height="200" version="1.1" viewBox="0 0 200 200" xmlns="http://www.w3.org/2000/svg" xmlns:xlink="http://www.w3.org/1999/xlink">
 <defs>
  <linearGradient id="linearGradient1006" x1="100.25" x2="100.25" y1="33.716" y2="165.79" gradientUnits="userSpaceOnUse">
   <stop stop-color="#5d00b2" offset="0"/>
   <stop stop-color="#47008d" offset="1"/>
  </linearGradient>
 </defs>
 <g>
  <path d="m30 0h140c19.915 0 30.07 10.227 30 30v140c0.12434 19.915-10.016 29.93-30 30h-140c-19.704 0.12434-30-9.9455-30-30v-140c0-20.091 9.7683-30 30-30z" fill="url(#linearGradient1006)"/>
  <path d="m47.013 44.058h105.98c1.54 0 2.008 0.86225 2.008 1.948v66.937c0 1.2286-0.61662 2.0576-2.0034 2.0576h-106.03c-1.1344 0-1.9661-0.42425-1.9661-1.9852v-67.037c0-1.5129 0.41624-1.92 2.0127-1.92z" fill="#fff"/>
  <path d="m50 56.037 49.678 29.438 50.322-29.438zm0-7.4772h100v7.4767h-100z" fill="#007ccb"/>
  <g transform="matrix(.14014 0 0 .14014 46.16 100.3)" fill="#fff">
   <g transform="matrix(1.251 0 0 1.251 28.943 -124.84)" fill="#fff">
    <path d="m-10 497.36h-31v-71.562l-74.312-100.44h32.312l64.375 87.188 63.938-87.188h17.125l-72.438 98.562z"/>
    <path d="m71.438 349.38-64.812 127h12.062l20.312-41h58.375l19.625 41h23.938l-63.188-127zm-2.875 27.938 24.312 50.062h-49.438z"/>
    <path d="m151 488.36v-145h27v66h78v-66h27v145h-27v-70h-78v70z"/>
    <path d="m537.75 338.25c-52.109 1.1368-85.875 37.85-85.875 77.5 0 51.447 50.096 77.75 88.375 77.75 39.188 0 87.75-26.128 87.75-77.125 0-53.898-47.507-78.125-87.75-78.125-0.8363 0-1.6729-0.018-2.5 0zm2.25 7.125c33.55 0 56.75 25.643 56.75 70.125 0 51.894-29.512 69.75-56.5 69.75-36.436 0-57.375-27.122-57.375-70.5 0-40.142 21.03-69.375 57.125-69.375zm-171.88 9.875c-40.328 0-74.25 27.98-74.25 65.125 0 40.988 39.219 66.125 74.25 66.125 42.258 0 73.875-29.994 73.875-64.875 0-54.674-53.005-66.375-73.875-66.375zm-0.125 6.25c23.557 0 48 15.312 48 59 0 41.653-22.605 58.75-47.75 58.75-27.175 0-47.25-16.978-47.25-58.875 0-46.596 27.219-58.875 47-58.875z"/>
    <path d="m639.3 461.33-1.1709 22.909 22 2.125 3.0427-23.963zm26.418-18.982 17.536-138.11-36.5 11.25-6.4322 125.85z"/>
   </g>
  </g>
 </g>
</svg>
